<?xml version="1.0" encoding="UTF-8" standalone="no"?>
<!DOCTYPE svg PUBLIC "-//W3C//DTD SVG 1.1//EN" "http://www.w3.org/Graphics/SVG/1.1/DTD/svg11.dtd">
<svg version="1.1" xmlns="http://www.w3.org/2000/svg" xmlns:xlink="http://www.w3.org/1999/xlink" preserveAspectRatio="xMidYMid meet" viewBox="0 0 24 24" width="24" height="24"><defs><path d="M16.06 23.13L16.49 19.23L18.2 19.23L18.83 23.13L16.06 23.13ZM14.53 21.56L14.04 21.79L13.52 21.95L13 22.05L12.45 22.1L11.9 22.12L11.35 22.1L10.78 22.05L10.84 20.86L11.37 20.9L11.88 20.91L12.37 20.9L12.86 20.86L13.33 20.79L13.76 20.66L14.18 20.48L14.56 20.24L15 21.26L14.53 21.56ZM7.38 19.25L7.73 19.53L8.03 19.74L8.44 20L8.87 20.23L9.31 20.44L9.77 20.62L9.53 21.83L8.97 21.66L8.42 21.45L7.87 21.2L7.34 20.91L6.82 20.58L6.31 20.2L5.81 19.79L5.32 19.34L6.52 18.48L6.98 18.9L7.38 19.25ZM13.53 20.16L13.29 19.11L20.31 15.51L20.44 16.55L13.53 20.16ZM5.16 14.25L5.17 14.75L5.2 15.17L5.25 15.52L5.36 15.99L5.51 16.48L5.7 16.97L5.92 17.47L4.55 18.12L4.33 17.66L4.15 17.16L3.98 16.63L3.85 16.06L3.74 15.47L3.65 14.83L3.59 14.17L3.56 13.47L5.17 13.69L5.16 14.25ZM13.4 13.69L9.46 1.59L11.18 0.87L11.54 1.59L17.02 12.38L13.4 13.69ZM7.03 9.68L6.7 10.07L6.39 10.47L6.1 10.89L5.84 11.32L5.59 11.76L5.53 11.88L5.37 12.21L5.17 12.68L3.77 12.44L3.99 11.88L4.25 11.34L4.54 10.82L4.88 10.32L5.25 9.83L5.65 9.37L6.08 8.92L6.54 8.49L7.39 9.31L7.03 9.68ZM10.26 7.64L9.95 7.72L9.64 7.82L9.34 7.94L9.04 8.09L8.75 8.25L8.45 8.44L8.16 8.65L7.54 7.66L7.84 7.44L8.15 7.25L8.49 7.07L8.84 6.92L9.2 6.79L9.59 6.68L9.99 6.59L10.41 6.53L10.57 7.58L10.26 7.64Z" id="b2G9hO77lz"></path></defs><g><g><g><use xlink:href="#b2G9hO77lz" opacity="1" fill="#ffffff" fill-opacity="1"></use><g><use xlink:href="#b2G9hO77lz" opacity="1" fill-opacity="0" stroke="#000000" stroke-width="1" stroke-opacity="0"></use></g></g></g></g></svg>