<?xml version="1.0" encoding="UTF-8" standalone="no"?>
<!DOCTYPE svg PUBLIC "-//W3C//DTD SVG 1.1//EN" "http://www.w3.org/Graphics/SVG/1.1/DTD/svg11.dtd">
<svg version="1.1" xmlns="http://www.w3.org/2000/svg" xmlns:xlink="http://www.w3.org/1999/xlink" preserveAspectRatio="xMidYMid meet" viewBox="0 0 640 640" width="640" height="640"><defs><path d="M202.9 194.29C214.63 189.65 227.52 186.43 241.57 184.63L245.5 210.49C235.21 212.03 225.15 214.98 215.3 219.37C205.45 223.75 195.81 229.55 186.4 236.78L171.18 212.46C180.6 204.99 191.17 198.93 202.9 194.29Z" id="a1ZN6FojHo"></path><path d="M105.69 277.74C94.08 293.91 85.04 311.25 78.58 329.76L112.89 335.68C119.08 320.19 126.72 305.53 135.79 291.73C144.87 277.92 155.38 264.96 167.34 252.84L146.45 232.72C130.88 246.56 117.29 261.56 105.69 277.74Z" id="f112RrI2zA"></path><path d="M112.9 360.53C111.11 375.01 111.74 390 114.8 405.48C117.86 420.96 123.34 436.95 131.24 453.43L97.51 469.41C90.12 454.74 84.4 437.89 80.36 418.86C76.31 399.83 73.95 378.61 73.25 355.21L112.9 360.53Z" id="b4CVxYvOi"></path><path d="M146.03 478.28C157.42 490.17 169.77 500.5 183.08 509.25C196.4 517.99 210.67 525.17 225.91 530.78L220 560.53C201.38 555.67 183.44 548.13 166.19 537.92C148.93 527.71 132.35 514.83 116.45 499.28L146.03 478.28Z" id="f1j1Twau6f"></path><path d="M301.77 536.7C317.47 535.15 331.39 530.07 343.52 521.48L354.32 546.64C339.16 557.42 322.75 563.88 305.1 566.02C287.44 568.17 269.33 568.17 250.77 566.02L252.23 536.7C269.55 538.25 286.06 538.25 301.77 536.7Z" id="d5uO07Oaxc"></path><path d="M484.78 405.21L488.05 430.8L318.19 519.41L312.31 493.81L484.78 405.21Z" id="b5IOV6QrH"></path><path d="M390.89 496.76L433.01 496.76L448.4 592.35L380.36 592.35L390.89 496.76Z" id="a1nN1sBR5"></path><path d="M315.13 360.5L404.02 328.45L260.48 45.74L218.22 63.23L315.13 360.5Z" id="dA0iW11dm"></path></defs><g><g><g><use xlink:href="#a1ZN6FojHo" opacity="1" fill="#ffffff" fill-opacity="1"></use><g><use xlink:href="#a1ZN6FojHo" opacity="1" fill-opacity="0" stroke="#000000" stroke-width="0" stroke-opacity="1"></use></g></g><g><use xlink:href="#f112RrI2zA" opacity="1" fill="#ffffff" fill-opacity="1"></use><g><use xlink:href="#f112RrI2zA" opacity="1" fill-opacity="0" stroke="#000000" stroke-width="0" stroke-opacity="1"></use></g></g><g><use xlink:href="#b4CVxYvOi" opacity="1" fill="#ffffff" fill-opacity="1"></use><g><use xlink:href="#b4CVxYvOi" opacity="1" fill-opacity="0" stroke="#000000" stroke-width="0" stroke-opacity="1"></use></g></g><g><use xlink:href="#f1j1Twau6f" opacity="1" fill="#ffffff" fill-opacity="1"></use><g><use xlink:href="#f1j1Twau6f" opacity="1" fill-opacity="0" stroke="#000000" stroke-width="0" stroke-opacity="1"></use></g></g><g><use xlink:href="#d5uO07Oaxc" opacity="1" fill="#ffffff" fill-opacity="1"></use><g><use xlink:href="#d5uO07Oaxc" opacity="1" fill-opacity="0" stroke="#000000" stroke-width="0" stroke-opacity="1"></use></g></g><g><use xlink:href="#b5IOV6QrH" opacity="1" fill="#ffffff" fill-opacity="1"></use><g><use xlink:href="#b5IOV6QrH" opacity="1" fill-opacity="0" stroke="#000000" stroke-width="0" stroke-opacity="1"></use></g></g><g><use xlink:href="#a1nN1sBR5" opacity="1" fill="#ffffff" fill-opacity="1"></use><g><use xlink:href="#a1nN1sBR5" opacity="1" fill-opacity="0" stroke="#000000" stroke-width="0" stroke-opacity="1"></use></g></g><g><use xlink:href="#dA0iW11dm" opacity="1" fill="#fdfdfd" fill-opacity="1"></use><g><use xlink:href="#dA0iW11dm" opacity="1" fill-opacity="0" stroke="#000000" stroke-width="0" stroke-opacity="1"></use></g></g></g></g></svg>