<?xml version="1.0" encoding="iso-8859-1"?>
<!-- Generator: Adobe Illustrator 19.0.0, SVG Export Plug-In . SVG Version: 6.00 Build 0)  -->
<svg version="1.1" id="Layer_1" xmlns="http://www.w3.org/2000/svg" xmlns:xlink="http://www.w3.org/1999/xlink" x="0px" y="0px"
	 viewBox="0 0 512 512" style="enable-background:new 0 0 512 512;" xml:space="preserve">
<circle style="fill:#F56E92;" cx="256" cy="256" r="247.83"/>
<circle style="fill:#FCCFDB;" cx="256" cy="256" r="215.149"/>
<circle style="fill:#FF9E46;" cx="256" cy="115.886" r="21.787"/>
<g>
	<path style="fill:#FF7226;" d="M171.501,391.434c-4.524,0-9.086-1.403-12.994-4.313c-12.79-9.523-24.104-20.837-33.629-33.628
		c-7.187-9.651-5.188-23.3,4.463-30.486c9.65-7.188,23.299-5.189,30.487,4.463c6.996,9.395,15.307,17.705,24.7,24.7
		c9.652,7.187,11.65,20.835,4.464,30.487C184.718,388.401,178.151,391.434,171.501,391.434z"/>
	<path style="fill:#FF7226;" d="M415.538,261.461c2.263,3.918,3.328,8.57,2.763,13.41c-1.853,15.838-5.994,31.293-12.309,45.936
		c-4.765,11.049-17.584,16.143-28.634,11.377c-11.049-4.763-16.143-17.583-11.378-28.634c4.638-10.756,7.68-22.109,9.041-33.741
		c1.398-11.951,12.218-20.507,24.171-19.11C406.304,251.531,412.213,255.703,415.538,261.461z"/>
	<path style="fill:#FF7226;" d="M340.499,120.566c4.524,0,9.086,1.403,12.994,4.313c12.79,9.523,24.104,20.837,33.629,33.628
		c7.186,9.651,5.188,23.3-4.463,30.486c-9.65,7.188-23.299,5.189-30.487-4.463c-6.996-9.395-15.307-17.705-24.7-24.7
		c-9.652-7.187-11.65-20.835-4.464-30.487C327.282,123.599,333.849,120.566,340.499,120.566z"/>
</g>
<circle style="fill:#F23E6D;" cx="256" cy="256" r="68.085"/>
<g>
	<path style="fill:#3E0412;" d="M437.019,74.981C388.667,26.628,324.38,0,256,0C193.89,0,133.983,22.533,87.315,63.448
		c-3.393,2.974-3.732,8.138-0.757,11.53c2.975,3.392,8.136,3.733,11.53,0.757C141.774,37.434,197.855,16.34,256,16.34
		c132.149,0,239.66,107.51,239.66,239.66S388.149,495.66,256,495.66S16.34,388.149,16.34,256
		c0-58.146,21.093-114.227,59.395-157.914c2.974-3.392,2.635-8.556-0.757-11.53c-3.393-2.974-8.555-2.636-11.53,0.757
		C22.533,133.982,0,193.889,0,256c0,68.38,26.628,132.667,74.981,181.019S187.62,512,256,512s132.667-26.628,181.019-74.981
		S512,324.38,512,256S485.372,123.333,437.019,74.981z"/>
	<path style="fill:#3E0412;" d="M333.029,321.475c-3.19-3.19-8.363-3.191-11.554,0.001c-3.803,3.803-7.921,7.246-12.287,10.315
		l-8.228-14.252c18.955-13.887,31.295-36.294,31.295-61.539c0-42.047-34.208-76.255-76.255-76.255
		c-28.893,0-54.085,16.153-67.019,39.903l-15.223-6.251c4.327-8.329,9.938-16.044,16.766-22.871c3.191-3.192,3.191-8.364,0-11.555
		c-3.191-3.19-8.364-3.19-11.554,0c-20.576,20.575-31.907,47.931-31.907,77.029c0,4.513,3.658,8.17,8.17,8.17s8.17-3.657,8.17-8.17
		c0-9.461,1.421-18.702,4.141-27.491l15.231,6.254c-1.96,6.746-3.032,13.868-3.032,21.237c0,42.047,34.208,76.255,76.255,76.255
		c10.966,0,21.387-2.344,30.819-6.53l8.225,14.247c-4.844,2.258-9.883,4.105-15.066,5.49c-4.36,1.166-6.949,5.644-5.784,10.004
		c0.976,3.654,4.279,6.062,7.888,6.062c0.698,0,1.409-0.09,2.114-0.279c9.193-2.457,18.007-6.122,26.214-10.862
		c0.021-0.012,0.042-0.019,0.062-0.031c0.041-0.024,0.079-0.053,0.12-0.077c8.155-4.731,15.709-10.522,22.436-17.251
		C336.221,329.838,336.221,324.665,333.029,321.475z M196.085,256c0-33.037,26.878-59.915,59.915-59.915
		s59.915,26.878,59.915,59.915S289.037,315.915,256,315.915S196.085,289.037,196.085,256z"/>
	<path style="fill:#3E0412;" d="M318.643,364.516c-18.951,10.965-40.611,16.761-62.643,16.761c-4.512,0-8.17,3.657-8.17,8.17
		c0,4.513,3.658,8.17,8.17,8.17c24.901,0,49.392-6.556,70.826-18.958c3.906-2.259,5.241-7.257,2.979-11.163
		C327.547,363.59,322.546,362.254,318.643,364.516z"/>
	<path style="fill:#3E0412;" d="M185.174,133.341c-43.666,25.266-70.791,72.265-70.791,122.659c0,4.513,3.658,8.17,8.17,8.17
		c4.512,0,8.17-3.657,8.17-8.17c0-44.581,24-86.162,62.634-108.516c3.905-2.259,5.24-7.257,2.98-11.163
		C194.077,132.414,189.076,131.082,185.174,133.341z"/>
	<path style="fill:#3E0412;" d="M132.753,132.752c-21.67,21.671-37.283,48.686-45.153,78.13c-1.166,4.36,1.424,8.837,5.783,10.004
		c0.707,0.188,1.416,0.279,2.114,0.279c3.609,0,6.912-2.411,7.888-6.062c7.129-26.672,21.28-51.152,40.921-70.793
		c3.191-3.192,3.191-8.364,0-11.555C141.117,129.563,135.944,129.563,132.753,132.752z"/>
	<path style="fill:#3E0412;" d="M413.92,402.333c3.421,2.939,8.579,2.551,11.521-0.873c34.744-40.434,53.878-92.094,53.878-145.46
		c0-123.138-100.181-223.319-223.319-223.319C132.861,32.681,32.681,132.862,32.681,256S132.861,479.319,256,479.319
		c53.367,0,105.026-19.134,145.46-53.878c3.423-2.94,3.813-8.099,0.873-11.521c-2.94-3.422-8.099-3.811-11.521-0.873
		c-37.473,32.198-85.35,49.931-134.812,49.931c-114.128,0-206.979-92.85-206.979-206.979S141.872,49.021,256,49.021
		c114.129,0,206.979,92.85,206.979,206.979c0,49.461-17.733,97.339-49.931,134.812C410.108,394.235,410.498,399.393,413.92,402.333z
		"/>
	<circle style="fill:#3E0412;" cx="222.774" cy="419.949" r="8.17"/>
	<circle style="fill:#3E0412;" cx="204.255" cy="98.043" r="8.17"/>
	<path style="fill:#3E0412;" d="M256.009,145.851c13.527,0,25.418-9.133,28.921-22.21c4.276-15.956-5.228-32.415-21.183-36.69
		c-2.541-0.681-5.155-1.026-7.768-1.026c-13.526,0-25.418,9.133-28.923,22.21c-4.275,15.956,5.229,32.415,21.184,36.69
		C250.782,145.505,253.396,145.851,256.009,145.851z M242.842,112.363c1.593-5.946,6.996-10.098,13.139-10.098
		c1.185,0,2.376,0.158,3.539,0.47c7.252,1.943,11.571,9.424,9.629,16.678c-1.594,5.946-6.996,10.098-13.139,10.098
		c-1.185,0-2.376-0.158-3.539-0.47C245.217,127.098,240.898,119.616,242.842,112.363z"/>
	<path style="fill:#3E0412;" d="M146.422,387.969c0.243,0.233,0.498,0.459,0.776,0.664c0.029,0.022,0.061,0.036,0.09,0.057
		c2.077,1.704,4.181,3.377,6.34,4.985c5.21,3.88,11.391,5.929,17.873,5.929c9.431,0,18.42-4.512,24.047-12.068
		c9.864-13.25,7.11-32.054-6.139-41.919c-8.757-6.52-16.505-14.268-23.027-23.027c-5.628-7.557-14.616-12.067-24.045-12.067
		c-6.483,0-12.664,2.051-17.873,5.93c-13.25,9.865-16.002,28.67-6.137,41.919C126.491,369.338,135.929,379.249,146.422,387.969z
		 M134.222,329.559c2.368-1.764,5.174-2.696,8.114-2.696c4.356,0,8.343,2,10.939,5.486l-1.978,1.473
		c-3.619,2.695-4.368,7.814-1.674,11.433c1.604,2.154,4.065,3.291,6.559,3.291c1.696,0,3.408-0.526,4.873-1.617l2.83-2.107
		c4.865,5.044,10.125,9.703,15.764,13.902c6.022,4.484,7.274,13.032,2.791,19.054c-2.596,3.486-6.583,5.486-10.939,5.486
		c-2.94,0-5.746-0.931-8.115-2.695l1.757-2.361c2.694-3.619,1.945-8.738-1.675-11.432c-3.62-2.697-8.738-1.946-11.433,1.674
		l-1.239,1.663c-7.096-6.544-13.582-13.731-19.367-21.5C126.949,342.592,128.2,334.045,134.222,329.559z"/>
	<path style="fill:#3E0412;" d="M374.124,339.687c3.777,1.629,7.765,2.455,11.852,2.455c11.975,0,22.777-7.105,27.519-18.1
		c1.065-2.471,2.05-4.972,2.998-7.485c0.015-0.034,0.036-0.063,0.051-0.097c0.136-0.317,0.244-0.638,0.339-0.961
		c4.727-12.796,7.945-26.099,9.534-39.682c0.753-6.453-0.562-12.829-3.802-18.442c-4.715-8.167-13.116-13.695-22.475-14.79
		c-1.161-0.136-2.34-0.205-3.504-0.205c-15.184,0-27.965,11.384-29.729,26.48c-1.268,10.843-4.105,21.427-8.427,31.455
		c-3.169,7.348-3.287,15.491-0.332,22.927C361.102,330.679,366.775,336.519,374.124,339.687z M396.635,258.721
		c0.532,0,1.073,0.03,1.608,0.094c4.317,0.505,8.043,2.959,10.22,6.732c1.471,2.545,2.065,5.441,1.723,8.374
		c-1.126,9.62-3.149,19.089-6.022,28.303l-1.904-0.821c-4.141-1.788-8.95,0.123-10.737,4.267c-1.788,4.143,0.123,8.95,4.267,10.737
		l2.702,1.166c-2.157,5-7.069,8.23-12.516,8.23c-1.849,0-3.66-0.377-5.381-1.119c-3.339-1.44-5.919-4.095-7.262-7.474
		c-1.342-3.381-1.29-7.082,0.151-10.422c2.784-6.458,5.01-13.121,6.701-19.921l3.502,0.41c0.322,0.037,0.643,0.057,0.96,0.057
		c4.087,0,7.618-3.063,8.104-7.222c0.524-4.482-2.684-8.541-7.166-9.064l-2.448-0.286
		C383.938,263.896,389.742,258.721,396.635,258.721z"/>
	<path style="fill:#3E0412;" d="M369.664,201.476c6.483,0,12.664-2.051,17.873-5.93c6.418-4.779,10.591-11.772,11.75-19.688
		c1.159-7.916-0.834-15.813-5.612-22.231c-8.166-10.967-17.604-20.877-28.097-29.596c-0.243-0.233-0.498-0.458-0.775-0.665
		c-0.037-0.028-0.077-0.05-0.115-0.077c-2.07-1.696-4.165-3.363-6.315-4.964c-5.21-3.879-11.39-5.929-17.873-5.929
		c-9.431,0-18.419,4.512-24.046,12.068c-9.865,13.249-7.111,32.054,6.139,41.919c8.757,6.52,16.504,14.268,23.027,23.027
		C351.246,196.966,360.236,201.476,369.664,201.476z M332.35,153.276c-6.022-4.484-7.275-13.032-2.791-19.054
		c2.596-3.486,6.583-5.486,10.939-5.486c2.94,0,5.745,0.931,8.114,2.696c0.001,0-1.756,2.361-1.756,2.361
		c-2.695,3.619-1.945,8.738,1.674,11.432c1.465,1.092,3.176,1.617,4.873,1.617c2.494,0,4.957-1.137,6.559-3.291l1.239-1.663
		c7.096,6.544,13.582,13.731,19.367,21.5c2.172,2.917,3.077,6.506,2.551,10.104c-0.526,3.598-2.424,6.777-5.342,8.95
		c-2.368,1.764-5.173,2.696-8.112,2.696c-4.355,0-8.343-2-10.939-5.486l1.977-1.473c3.619-2.695,4.368-7.814,1.673-11.433
		c-2.696-3.618-7.812-4.368-11.433-1.673l-2.829,2.107C343.249,162.134,337.99,157.476,332.35,153.276z"/>
</g>
<g>
</g>
<g>
</g>
<g>
</g>
<g>
</g>
<g>
</g>
<g>
</g>
<g>
</g>
<g>
</g>
<g>
</g>
<g>
</g>
<g>
</g>
<g>
</g>
<g>
</g>
<g>
</g>
<g>
</g>
</svg>
