<?xml version="1.0"?>
<!DOCTYPE svg PUBLIC "-//W3C//DTD SVG 1.1//EN" "http://www.w3.org/Graphics/SVG/1.1/DTD/svg11.dtd">
<svg xmlns="http://www.w3.org/2000/svg" xmlns:xl="http://www.w3.org/1999/xlink" version="1.1" viewBox="0 0 162 162" width="162pt" height="162pt"><metadata xmlns:dc="http://purl.org/dc/elements/1.1/"><dc:date>2013-09-10 03:31Z</dc:date><!-- Produced by OmniGraffle Professional 5.4.4 --></metadata><defs><linearGradient x1="0" x2="1" id="Gradient" gradientUnits="userSpaceOnUse"><stop offset="0" stop-color="#f66"/><stop offset=".4908234" stop-color="#0080ff"/><stop offset="1" stop-color="#80ff00"/></linearGradient><linearGradient id="Obj_Gradient" xl:href="#Gradient" gradientTransform="translate(79.300003 7.25) rotate(90) scale(144)"/></defs><g stroke="none" stroke-opacity="1" stroke-dasharray="none" fill="none" fill-opacity="1"><title>Canvas 1</title><g><title>Layer 1</title><circle cx="79.300003" cy="79.25" r="72.000114" fill="url(#Obj_Gradient)"/><path d="M 56.90801 84.76327 L 60.713693 95.13531 C 58.404715 97.29132 55.545773 97.30665 53.2138 95.175535 Z" fill="white"/><path d="M 56.90801 84.76327 L 60.713693 95.13531 C 58.404715 97.29132 55.545773 97.30665 53.2138 95.175535 Z" stroke="white" stroke-linecap="round" stroke-linejoin="round" stroke-width="1"/><path d="M 51.73345 72.094883 L 53.741307 82.95909 C 51.10274 84.69625 48.281908 84.23074 46.34139 81.737923 Z" fill="white"/><path d="M 51.73345 72.094883 L 53.741307 82.95909 C 51.10274 84.69625 48.281908 84.23074 46.34139 81.737923 Z" stroke="white" stroke-linecap="round" stroke-linejoin="round" stroke-width="1"/><path d="M 56.825632 67.826226 L 79.680123 47.24795 L 116.220335 87.82997 L 93.365844 108.40824 Z" fill="white"/><path d="M 62.76854 72.96134 L 53.667267 70.67003 L 57.554197 67.170224 Z" fill="white"/></g></g></svg>
