<?xml version="1.0"?>
<!DOCTYPE svg PUBLIC "-//W3C//DTD SVG 1.1//EN" "http://www.w3.org/Graphics/SVG/1.1/DTD/svg11.dtd">
<svg xmlns="http://www.w3.org/2000/svg" xmlns:xl="http://www.w3.org/1999/xlink" version="1.1" viewBox="0 0 162 162" width="162pt" height="162pt"><metadata xmlns:dc="http://purl.org/dc/elements/1.1/"><dc:date>2013-09-09 21:11Z</dc:date><!-- Produced by OmniGraffle Professional 5.4.4 --></metadata><defs><linearGradient x1="0" x2="1" id="Gradient" gradientUnits="userSpaceOnUse"><stop offset="0" stop-color="#f66"/><stop offset=".39006692" stop-color="#0080ff"/><stop offset="1" stop-color="#80ff00"/></linearGradient><linearGradient id="Obj_Gradient" xl:href="#Gradient" gradientTransform="translate(77.4 5.88) rotate(90) scale(144)"/></defs><g stroke="none" stroke-opacity="1" stroke-dasharray="none" fill="none" fill-opacity="1"><title>Canvas 1</title><g><title>Layer 1</title><circle cx="77.4" cy="77.88" r="72.000114" fill="url(#Obj_Gradient)"/><path d="M 52.673206 67.323632 L 81.036773 42.626844 L 120.92415 88.43638 L 92.560586 113.133166 Z" fill="white"/><path d="M 52.673206 67.323632 L 81.036773 42.626844 L 120.92415 88.43638 L 92.560586 113.133166 Z M 55.509563 64.853953 L 95.39694 110.66349 M 118.087796 90.906057 L 78.200416 45.096523" stroke="white" stroke-linecap="round" stroke-linejoin="round" stroke-width="1"/><path d="M 48.16291 84.206995 L 50.170767 95.071203 C 47.5322 96.80836 44.711368 96.342854 42.770852 93.850035 Z" fill="white"/><path d="M 48.16291 84.206995 L 50.170767 95.071203 C 47.5322 96.80836 44.711368 96.342854 42.770852 93.850035 Z" stroke="white" stroke-linecap="round" stroke-linejoin="round" stroke-width="1"/><path d="M 45.183502 71.55302 L 47.19136 82.417226 C 44.552792 84.154384 41.73196 83.688877 39.791444 81.19606 Z" fill="white"/><path d="M 45.183502 71.55302 L 47.19136 82.417226 C 44.552792 84.154384 41.73196 83.688877 39.791444 81.19606 Z" stroke="white" stroke-linecap="round" stroke-linejoin="round" stroke-width="1"/></g></g></svg>
