<?xml version="1.0" encoding="UTF-8" standalone="no"?>
<!-- Created with Inkscape (http://www.inkscape.org/) -->
<svg xmlns:dc="http://purl.org/dc/elements/1.1/" xmlns:cc="http://creativecommons.org/ns#" xmlns:rdf="http://www.w3.org/1999/02/22-rdf-syntax-ns#" xmlns:svg="http://www.w3.org/2000/svg" xmlns="http://www.w3.org/2000/svg" xmlns:xlink="http://www.w3.org/1999/xlink" xmlns:sodipodi="http://sodipodi.sourceforge.net/DTD/sodipodi-0.dtd" xmlns:inkscape="http://www.inkscape.org/namespaces/inkscape" width="494.31" height="504.70999" id="svg2" sodipodi:version="0.32" inkscape:version="0.46" version="1.0" sodipodi:docname="Download-Arrow.svg" inkscape:output_extension="org.inkscape.output.svg.inkscape">
  <defs id="defs4">
    <linearGradient id="linearGradient3378">
      <stop style="stop-color:#88ff00;stop-opacity:1;" offset="0" id="stop3380"/>
      <stop style="stop-color:#257400;stop-opacity:1;" offset="1" id="stop3382"/>
    </linearGradient>
    <inkscape:perspective sodipodi:type="inkscape:persp3d" inkscape:vp_x="0 : 526.18109 : 1" inkscape:vp_y="0 : 1000 : 0" inkscape:vp_z="744.09448 : 526.18109 : 1" inkscape:persp3d-origin="372.04724 : 350.78739 : 1" id="perspective10"/>
    <inkscape:perspective id="perspective2562" inkscape:persp3d-origin="372.04724 : 350.78739 : 1" inkscape:vp_z="744.09448 : 526.18109 : 1" inkscape:vp_y="0 : 1000 : 0" inkscape:vp_x="0 : 526.18109 : 1" sodipodi:type="inkscape:persp3d"/>
    <filter inkscape:collect="always" id="filter3398">
      <feGaussianBlur inkscape:collect="always" stdDeviation="1.6711459" id="feGaussianBlur3400"/>
    </filter>
    <linearGradient inkscape:collect="always" xlink:href="#linearGradient3378" id="linearGradient3411" gradientUnits="userSpaceOnUse" x1="595.51044" y1="509.84375" x2="595.51044" y2="329.21875"/>
    <linearGradient inkscape:collect="always" xlink:href="#linearGradient3378" id="linearGradient3441" gradientUnits="userSpaceOnUse" x1="595.51044" y1="509.84375" x2="595.51044" y2="329.21875"/>
  </defs>
  <sodipodi:namedview id="base" pagecolor="#ffffff" bordercolor="#666666" borderopacity="1.0" inkscape:pageopacity="0.0" inkscape:pageshadow="2" inkscape:zoom="1.4" inkscape:cx="318.70984" inkscape:cy="335.77581" inkscape:document-units="px" inkscape:current-layer="layer1" showgrid="false" inkscape:window-width="1280" inkscape:window-height="750" inkscape:window-x="-8" inkscape:window-y="-8"/>
  <metadata id="metadata7">
    <rdf:RDF>
      <cc:Work rdf:about="">
        <dc:format>image/svg+xml</dc:format>
        <dc:type rdf:resource="http://purl.org/dc/dcmitype/StillImage"/>
      </cc:Work>
    </rdf:RDF>
  </metadata>
  <g inkscape:label="Ebene 1" inkscape:groupmode="layer" id="layer1" transform="translate(-4.2856629,-1.7901679)">
    <g id="g3446">
      <path id="rect2568" d="M 119.51221,12.551409 L 119.51221,189.24975 L 21.904047,188.82567 L 135.2737,340.99828 L 248.64335,493.17089 L 364.34542,342.05847 L 480.11817,190.87537 L 377.98653,190.38062 L 377.98653,12.551409 L 119.51221,12.551409 z" style="fill:#88f288;fill-opacity:1;fill-rule:evenodd;stroke:#008b00;stroke-width:18.09391022;stroke-miterlimit:4;stroke-dasharray:none;stroke-opacity:1"/>
      <path transform="matrix(2.2617387,0,0,2.2617387,-1095.3949,-704.91451)" id="path3364" d="M 549.15625,395.34375 C 548.33551,406.10967 535.28665,409.55082 526.34375,407.28125 C 521.18102,406.85014 515.04084,406.5796 521.46284,412.09035 C 545.76744,444.64337 570.00483,477.24646 594.25,509.84375 C 620.27083,475.88542 646.29167,441.92708 672.3125,407.96875 C 661.35421,407.91722 650.39588,407.86541 639.4375,407.84375 C 639.4375,381.63542 639.4375,355.42708 639.4375,329.21875 C 609.34375,329.21875 579.25,329.21875 549.15625,329.21875 C 549.15625,351.26042 549.15625,373.30208 549.15625,395.34375 z" style="fill:url(#linearGradient3441);fill-opacity:1;fill-rule:evenodd;stroke:none;stroke-width:4.5;stroke-miterlimit:4;stroke-dasharray:none;stroke-opacity:1;filter:url(#filter3398)"/>
      <path sodipodi:nodetypes="ccccccc" id="path3402" d="M 124.03569,189.24975 C 119.75243,199.30261 97.269138,191.04016 85.586398,193.63795 C 67.35104,193.56524 49.115681,193.49254 30.880322,193.41983 C 107.06539,290.10589 117.75954,306.62358 162.38981,362.23823 C 190.67834,223.97699 342.82928,298.93616 373.46306,17.074887 C 290.32059,17.074887 207.17815,17.074887 124.03569,17.074887 C 124.03569,74.466506 124.03569,131.85813 124.03569,189.24975 z" style="opacity:0.55913978;fill:#fff5ee;fill-opacity:1;fill-rule:evenodd;stroke:none;stroke-width:8;stroke-miterlimit:4;stroke-dasharray:none;stroke-opacity:1"/>
    </g>
  </g>
</svg>