<?xml version="1.0" encoding="utf-8" standalone="no"?>
<!DOCTYPE svg PUBLIC "-//W3C//DTD SVG 1.1//EN" "http://www.w3.org/Graphics/SVG/1.1/DTD/svg11.dtd">
<svg xmlns="http://www.w3.org/2000/svg" xmlns:xl="http://www.w3.org/1999/xlink" version="1.1" viewBox="-7 -7 526 526" width="526pt" height="526pt" xmlns:dc="http://purl.org/dc/elements/1.1/"><metadata> Produced by OmniGraffle 6.2.2 <dc:date>2015-05-22 19:00:37 +0000</dc:date></metadata><defs/><g stroke="none" stroke-opacity="1" stroke-dasharray="none" fill="none" fill-opacity="1"><title>iTunesArtwork</title><g><title>ellipse</title><path d="M 407.32068 104.679316 C 490.89325 188.25145 490.89325 323.74855 407.32068 407.32068 C 323.74855 490.89325 188.25145 490.89325 104.679316 407.32068 C 21.106752 323.74855 21.106752 188.25145 104.679316 104.679316 C 188.25145 21.106752 323.74855 21.106752 407.32068 104.679316" stroke="white" stroke-linecap="square" stroke-linejoin="miter" stroke-width="50"/><path d="M 287.2721 112.81479 L 276.19295 127.433545 L 366.86694 196.15285 L 377.94609 181.5341 Z" fill="#ffea2e"/><path d="M 262.35909 153.69292 L 159.69196 287.91219 C 159.35642 288.35085 159.44001 288.97847 159.87868 289.31402 L 242.40664 352.44139 C 242.8453 352.77693 243.47293 352.69334 243.80847 352.25467 C 243.80847 352.25467 243.80847 352.25467 243.80847 352.25467 L 346.4756 218.0354 C 346.81115 217.59674 346.72755 216.96912 346.28888 216.63357 L 263.76092 153.506205 C 263.32226 153.17066 262.69463 153.25426 262.35909 153.69292 Z" fill="#ffea2e"/><path d="M 291.33685 108.13553 L 286.14776 114.98244 C 282.81192 119.38403 283.67588 125.65646 288.07747 128.9923 C 288.07747 128.9923 288.07747 128.9923 288.07747 128.9923 L 362.0783 185.07549 C 366.4799 188.41133 372.75233 187.54738 376.08817 183.14579 L 381.27725 176.29888 C 384.6131 171.89729 383.74914 165.62486 379.34755 162.28902 C 379.34755 162.28902 379.34755 162.28902 379.34755 162.28902 L 305.3467 106.20583 C 300.94512 102.869984 294.67269 103.73394 291.33685 108.13553 Z" fill="#ffea2e"/><path d="M 151.99242 298.2372 L 150.165 388.37264 C 150.15381 388.9248 150.59236 389.3815 151.14453 389.3927 C 151.24949 389.39483 151.35413 389.38042 151.45461 389.35 L 237.73957 363.2226 C 238.26816 363.06254 238.5669 362.50429 238.40685 361.9757 C 238.34565 361.7736 238.22206 361.59607 238.05377 361.46853 L 153.59623 297.4605 C 153.15607 297.12691 152.528825 297.2133 152.19524 297.65347 C 152.0677 297.82175 151.996705 298.0261 151.99242 298.2372 Z" fill="#ffea2e"/></g></g></svg>
