<?xml version="1.0" encoding="utf-8" standalone="no"?>
<!DOCTYPE svg PUBLIC "-//W3C//DTD SVG 1.1//EN" "http://www.w3.org/Graphics/SVG/1.1/DTD/svg11.dtd">
<svg xmlns="http://www.w3.org/2000/svg" xmlns:xl="http://www.w3.org/1999/xlink" version="1.1" viewBox="-8 -17 528 546" width="44pc" height="546pt" xmlns:dc="http://purl.org/dc/elements/1.1/"><metadata> Produced by OmniGraffle 6.2.2 <dc:date>2015-05-22 19:07:10 +0000</dc:date></metadata><defs/><g stroke="none" stroke-opacity="1" stroke-dasharray="none" fill="none" fill-opacity="1"><title>iTunesArtwork</title><g><title>show/hide</title><path d="M 26.592616 254.85761 C 60.541297 149.91098 190.77132 87.630986 317.46952 115.75135 C 399.42889 133.94204 463.44644 186.96905 485.40738 254.85761" stroke="white" stroke-linecap="round" stroke-linejoin="round" stroke-width="50"/><path d="M 26.592616 257.14239 C 60.541297 362.08902 190.77132 424.36901 317.46952 396.24865 C 399.42889 378.05796 463.44644 325.03095 485.40738 257.14239" stroke="white" stroke-linecap="round" stroke-linejoin="round" stroke-width="50"/><ellipse cx="253.04366" cy="256" rx="93.81512" ry="95.00015" fill="#ffea2e"/><path d="M 316.7875 95.78415 L 138.93836 390.9627 C 138.65334 391.43575 138.80577 392.0503 139.27883 392.33532 C 139.27883 392.33532 139.27883 392.33532 139.27883 392.33532 L 177.30421 415.24613 C 177.77727 415.53116 178.39181 415.37873 178.67683 414.90567 L 356.52596 119.72712 C 356.81099 119.254065 356.65856 118.63952 356.1855 118.3545 L 318.16012 95.443684 C 317.68706 95.15866 317.07252 95.31109 316.7875 95.78415 Z" fill="white"/><path d="M 368.16346 97.613184 L 175.1887 417.89593 C 174.90368 418.369 175.05611 418.98353 175.52916 419.26855 C 175.52916 419.26855 175.52916 419.26855 175.52916 419.26855 L 213.55455 442.17937 C 214.0276 442.4644 214.64215 442.31196 214.92717 441.8389 L 407.90193 121.556156 C 408.18695 121.0831 408.03452 120.46856 407.56146 120.18354 L 369.53608 97.27272 C 369.06302 96.9877 368.44848 97.14013 368.16346 97.613184 Z" fill="#165fc8"/></g></g></svg>
