<?xml version="1.0" encoding="utf-8" standalone="no"?>
<!DOCTYPE svg PUBLIC "-//W3C//DTD SVG 1.1//EN" "http://www.w3.org/Graphics/SVG/1.1/DTD/svg11.dtd">
<svg xmlns="http://www.w3.org/2000/svg" xmlns:xl="http://www.w3.org/1999/xlink" version="1.1" viewBox="42 46 459 448" width="459pt" height="448pt" xmlns:dc="http://purl.org/dc/elements/1.1/"><metadata> Produced by OmniGraffle 6.2.2 <dc:date>2015-05-22 18:56:44 +0000</dc:date></metadata><defs/><g stroke="none" stroke-opacity="1" stroke-dasharray="none" fill="none" fill-opacity="1"><title>iTunesArtwork</title><g><title>measure</title><path d="M 135.43687 373.43687 L 228.93687 373.91505 L 200.32404 345.30222 L 346.80222 198.82404 L 375.41505 227.43687 L 374.93687 133.93687 L 281.43687 133.458685 L 310.0497 162.07151 L 163.57151 308.5497 L 134.958685 279.93687 Z" fill="#ffea2e"/><path d="M 499.49306 179.80557 L 469.08747 210.21116 C 468.69694 210.60169 468.06378 210.60169 467.67325 210.21116 L 336.51999 79.057896 C 336.12946 78.66737 336.12946 78.034207 336.51999 77.643683 C 336.51999 77.643683 336.51999 77.643683 336.51999 77.643683 L 366.92558 47.23809 C 367.3161 46.847567 367.94927 46.847567 368.3398 47.23809 L 499.49306 178.39136 C 499.88358 178.78188 499.88358 179.41505 499.49306 179.80557 Z" fill="white"/><path d="M 206.66305 462.35632 L 176.25746 492.7619 C 175.86694 493.15243 175.23377 493.15243 174.84325 492.7619 L 43.689983 361.60864 C 43.29946 361.21812 43.29946 360.58495 43.689983 360.19443 C 43.689983 360.19443 43.689983 360.19443 43.689983 360.19443 L 74.095575 329.78884 C 74.4861 329.39831 75.119264 329.39831 75.50979 329.78884 L 206.66305 460.9421 C 207.05358 461.33263 207.05358 461.9658 206.66305 462.35632 C 206.66305 462.35632 206.66305 462.35632 206.66305 462.35632 Z" fill="white"/><path d="M 282.81369 348.18631 L 271.84947 359.15053 C 270.55256 360.44744 262.79414 354.79414 254.53157 346.53157 C 246.26899 338.26899 240.6157 330.51057 241.9126 329.21366 L 252.87682 318.24944 C 254.17373 316.95253 261.93215 322.60583 270.19473 330.8684 C 278.4573 339.13098 284.1106 346.8894 282.81369 348.18631" fill="#ffea2e"/><path d="M 318.76039 312.23961 L 307.79617 323.20383 C 306.49926 324.50074 298.74084 318.84744 290.47826 310.58487 C 282.21569 302.3223 276.5624 294.56387 277.8593 293.26696 L 288.82352 282.30275 C 290.12043 281.00584 297.87885 286.65913 306.14143 294.9217 C 314.404 303.18428 320.0573 310.9427 318.76039 312.23961" fill="#ffea2e"/><path d="M 338.67158 292.32842 L 327.70737 303.29263 C 326.41046 304.58954 318.65204 298.93625 310.38946 290.67367 C 302.12689 282.4111 296.4736 274.65267 297.7705 273.35576 L 308.73472 262.39155 C 310.03163 261.09464 317.79005 266.74793 326.05262 275.0105 C 334.3152 283.27308 339.9685 291.0315 338.67158 292.32842" fill="#ffea2e"/><path d="M 360.15053 270.84947 L 349.18631 281.81369 C 347.8894 283.1106 340.13098 277.4573 331.8684 269.19473 C 323.60583 260.93215 317.95253 253.17373 319.24944 251.87682 L 330.21366 240.9126 C 331.51057 239.6157 339.269 245.26899 347.53157 253.53157 C 355.79414 261.79414 361.44744 269.55256 360.15053 270.84947" fill="#ffea2e"/></g></g></svg>
