<?xml version="1.0" encoding="utf-8" standalone="no"?>
<!DOCTYPE svg PUBLIC "-//W3C//DTD SVG 1.1//EN" "http://www.w3.org/Graphics/SVG/1.1/DTD/svg11.dtd">
<svg xmlns="http://www.w3.org/2000/svg" xmlns:xl="http://www.w3.org/1999/xlink" version="1.1" viewBox="7 7 491 491" width="491pt" height="491pt" xmlns:dc="http://purl.org/dc/elements/1.1/"><metadata> Produced by OmniGraffle 6.2.2 <dc:date>2015-05-22 20:49:30 +0000</dc:date></metadata><defs/><g stroke="none" stroke-opacity="1" stroke-dasharray="none" fill="none" fill-opacity="1"><title>iTunesArtwork</title><g><title>partDownload</title><rect x="16" y="16" width="480" height="480" stroke="#165fc8" stroke-linecap="square" stroke-linejoin="miter" stroke-width="1"/><rect x="16" y="16" width="276" height="200" stroke="white" stroke-linecap="square" stroke-linejoin="miter" stroke-width="15"/><path d="M 63.75 346 L 71.75 338 L 440.25 338 L 448.25 346 L 448.25 465 L 440.25 473 L 71.75 473 L 63.75 465 Z" fill="white"/><path d="M 63.75 346 L 71.75 338 L 440.25 338 L 448.25 346 L 448.25 465 L 440.25 473 L 71.75 473 L 63.75 465 Z" stroke="#165fc8" stroke-linecap="round" stroke-linejoin="round" stroke-width="16"/><path d="M 289.12766 31 L 334.339 31 L 334.339 278 L 359.46667 278 L 311.73333 374 L 264 278 L 289.12766 278 Z" fill="#ffea2e"/><rect x="232" y="400" width="189" height="48" fill="#165fc8"/></g></g></svg>
