<?xml version="1.0" encoding="utf-8" standalone="no"?>
<!DOCTYPE svg PUBLIC "-//W3C//DTD SVG 1.1//EN" "http://www.w3.org/Graphics/SVG/1.1/DTD/svg11.dtd">
<svg xmlns="http://www.w3.org/2000/svg" xmlns:xl="http://www.w3.org/1999/xlink" version="1.1" viewBox="-9 -11 530 525" width="530pt" height="525pt" xmlns:dc="http://purl.org/dc/elements/1.1/"><metadata> Produced by OmniGraffle 6.2.1 <dc:date>2015-04-25 04:16:19 +0000</dc:date></metadata><defs/><g stroke="none" stroke-opacity="1" stroke-dasharray="none" fill="none" fill-opacity="1"><title>iTunesArtwork</title><g><title>pencil</title><path d="M 283.78263 126.23922 L 273.81008 139.33693 L 355.0497 201.19244 L 365.02226 188.09473 Z" fill="#ffea2e"/><path d="M 262.3806 157.56422 L 165.83643 284.36315 C 165.50186 284.80256 165.58685 285.43 166.02627 285.76456 L 243.9572 345.10084 C 244.39661 345.43541 245.02404 345.35042 245.35861 344.911 C 245.35861 344.911 245.35861 344.911 245.35861 344.911 L 341.90278 218.11208 C 342.23735 217.67266 342.15236 217.04523 341.71294 216.71066 L 263.78201 157.37438 C 263.3426 157.03981 262.71516 157.12481 262.3806 157.56422 Z" fill="#ffea2e"/><path d="M 286.55097 122.710155 L 283.03937 127.322205 C 279.6937 131.71633 280.54364 137.990674 284.93777 141.33634 C 284.93777 141.33634 284.93777 141.33634 284.93777 141.33634 L 350.03775 190.9032 C 354.43187 194.24886 360.70622 193.39892 364.05189 189.0048 L 367.56348 184.39275 C 370.90915 179.99862 370.0592 173.72428 365.66508 170.37861 C 365.66508 170.37861 365.66508 170.37861 365.66508 170.37861 L 300.5651 120.811756 C 296.17098 117.46609 289.89664 118.31603 286.55097 122.710155 Z" fill="#ffea2e"/><path d="M 163.75666 289.7706 L 161.90019 372.2456 C 161.887765 372.79775 162.32529 373.25543 162.87744 373.26785 C 162.98239 373.27022 163.08707 373.25604 163.18761 373.22584 L 242.19638 349.49428 C 242.72532 349.3354 243.02531 348.77782 242.86644 348.24888 C 242.80569 348.04665 242.6825 347.86884 242.5145 347.74092 L 165.36219 288.99748 C 164.92278 288.66291 164.29534 288.7479 163.96078 289.18732 C 163.83286 289.35532 163.76141 289.5595 163.75666 289.7706 Z" fill="#ffea2e"/><path d="M 159.81103 380.66006 C 159.81103 380.66006 123.73107 461.9526 90.63792 451 C 57.54477 440.0474 37.23132 396.67787 43 342 C 48.76868 287.32213 88.052295 325.49848 111 258 C 133.947705 190.50152 45.24121 162.39038 124 103.746245 C 202.75879 45.10211 309.5017 25.99727 389 51 C 468.4983 76.00273 381.94592 129.389594 404.61032 192 C 427.27472 254.6104 476.25553 230.35416 469 272 C 461.74447 313.64584 398.54805 294.23781 379 339 C 359.45195 383.7622 426.63067 395.15348 400 430 C 373.36933 464.84652 334.86168 462.2833 285 462 C 235.13832 461.7167 224 429 224 429" stroke="white" stroke-linecap="butt" stroke-linejoin="round" stroke-width="50"/></g></g></svg>
