<?xml version="1.0" encoding="utf-8" standalone="no"?>
<!DOCTYPE svg PUBLIC "-//W3C//DTD SVG 1.1//EN" "http://www.w3.org/Graphics/SVG/1.1/DTD/svg11.dtd">
<svg xmlns="http://www.w3.org/2000/svg" xmlns:xl="http://www.w3.org/1999/xlink" version="1.1" viewBox="36 36 451 451" width="451pt" height="451pt" xmlns:dc="http://purl.org/dc/elements/1.1/"><metadata> Produced by OmniGraffle 6.2 <dc:date>2015-04-05 19:17:51 +0000</dc:date></metadata><defs/><g stroke="none" stroke-opacity="1" stroke-dasharray="none" fill="none" fill-opacity="1"><title>icon_512x512</title><g><title>Layer 1</title><path d="M 420.9524 102.0476 C 509.01602 190.11076 509.01602 332.88924 420.9524 420.9524 C 332.88924 509.01602 190.11076 509.01602 102.0476 420.9524 C 13.983984 332.88924 13.983984 190.11076 102.0476 102.0476 C 190.11076 13.983984 332.88924 13.983984 420.9524 102.0476" fill="#1397f1"/><path d="M 329.8551 69.116942 L 323.88534 75.08671 L 360.9133 112.11466 L 366.88306 106.14489 Z" fill="white"/><path d="M 318.0613 80.91076 L 259.69313 139.27892 C 259.30261 139.66944 259.30261 140.30261 259.69313 140.69313 L 295.30687 176.30687 C 295.6974 176.69739 296.33056 176.69739 296.72108 176.30687 C 296.72108 176.30687 296.72108 176.30687 296.72108 176.30687 L 355.08924 117.93871 C 355.47977 117.54818 355.47977 116.91502 355.08924 116.52449 L 319.4755 80.91076 C 319.08498 80.520234 318.45182 80.520234 318.0613 80.91076 C 318.0613 80.91076 318.0613 80.91076 318.0613 80.91076 Z" fill="white"/><path d="M 330.28152 68.69053 L 330.28152 68.69053 C 327.69101 71.28104 327.69101 75.481083 330.28152 78.07159 C 330.28152 78.07159 330.28152 78.07159 330.28152 78.07159 L 357.9284 105.71848 C 360.51892 108.30899 364.71896 108.30899 367.30947 105.71848 L 367.30947 105.71848 C 369.89998 103.12797 369.89998 98.927927 367.30947 96.33742 C 367.30947 96.33742 367.30947 96.33742 367.30947 96.33742 L 339.66258 68.69053 C 337.07207 66.100022 332.87203 66.100022 330.28152 68.69053 Z" fill="white"/><path d="M 260.1789 140.424285 L 253.72941 181.1264 C 253.64298 181.67188 254.01511 182.18415 254.56059 182.27059 C 254.66428 182.28702 254.7699 182.28702 254.8736 182.27059 L 295.57571 175.8211 C 296.1212 175.73467 296.49332 175.2224 296.40689 174.67692 C 296.37384 174.46837 296.27563 174.27563 296.12632 174.12632 L 261.87368 139.87368 C 261.48316 139.48316 260.84999 139.48316 260.45947 139.87368 C 260.31016 140.02299 260.21194 140.21573 260.1789 140.424285 Z" fill="white"/><path d="M 245 197 L 145 252.92105 L 139 338.52256 L 222 382.27444 L 303 446 L 411 371.81203 C 411 371.81203 437 303.33083 437 302.3797 C 437 301.42857 424 236.75188 424 236.75188 L 424 185 L 355 221 Z" stroke="white" stroke-linecap="round" stroke-linejoin="round" stroke-width="26"/></g></g></svg>
