<?xml version="1.0" encoding="utf-8" standalone="no"?>
<!DOCTYPE svg PUBLIC "-//W3C//DTD SVG 1.1//EN" "http://www.w3.org/Graphics/SVG/1.1/DTD/svg11.dtd">
<svg xmlns="http://www.w3.org/2000/svg" xmlns:xl="http://www.w3.org/1999/xlink" version="1.1" viewBox="-10 -10 532 532" width="532pt" height="532pt" xmlns:dc="http://purl.org/dc/elements/1.1/"><metadata> Produced by OmniGraffle 6.2.1 <dc:date>2015-04-25 04:14:59 +0000</dc:date></metadata><defs/><g stroke="none" stroke-opacity="1" stroke-dasharray="none" fill="none" fill-opacity="1"><title>iTunesArtwork</title><g><title>rect</title><rect x="16" y="16" width="480" height="480" stroke="white" stroke-linecap="square" stroke-linejoin="miter" stroke-width="50"/><path d="M 284.14471 126.1494 L 274.17216 139.24712 L 355.4118 201.10263 L 365.38434 188.00491 Z" fill="#ffea2e"/><path d="M 262.74268 157.4744 L 166.19851 284.27333 C 165.86394 284.71274 165.94893 285.34018 166.38835 285.67474 L 244.31928 345.01103 C 244.75869 345.3456 245.38612 345.2606 245.72069 344.82119 L 342.26486 218.02226 C 342.59943 217.58285 342.51444 216.95541 342.07502 216.62085 L 264.14409 157.28456 C 263.70468 156.949995 263.07724 157.03499 262.74268 157.4744 Z" fill="#ffea2e"/><path d="M 286.91305 122.62034 L 283.40145 127.23239 C 280.05578 131.626514 280.90572 137.90086 285.29985 141.24653 C 285.29985 141.24653 285.29985 141.24653 285.29985 141.24653 L 350.39983 190.81338 C 354.79395 194.15905 361.0683 193.3091 364.41397 188.91498 L 367.92556 184.30293 C 371.27123 179.9088 370.4213 173.63446 366.02716 170.28879 C 366.02716 170.28879 366.02716 170.28879 366.02716 170.28879 L 300.92719 120.72194 C 296.53306 117.37627 290.25872 118.22621 286.91305 122.62034 Z" fill="#ffea2e"/><path d="M 164.11874 289.68079 L 162.26227 372.15579 C 162.24985 372.70793 162.68737 373.1656 163.23952 373.17804 C 163.34447 373.1804 163.44915 373.16622 163.54969 373.13602 L 242.55846 349.40446 C 243.0874 349.24558 243.38739 348.688 243.22852 348.15906 C 243.16777 347.95683 243.04457 347.77902 242.87657 347.6511 L 165.72427 288.90766 C 165.28486 288.5731 164.65742 288.6581 164.32286 289.0975 C 164.19494 289.2655 164.12349 289.46969 164.11874 289.68079 Z" fill="#ffea2e"/></g></g></svg>
