<?xml version="1.0" encoding="UTF-8" standalone="no"?>
<!DOCTYPE svg PUBLIC "-//W3C//DTD SVG 1.1//EN" "http://www.w3.org/Graphics/SVG/1.1/DTD/svg11.dtd">
<svg version="1.1" xmlns="http://www.w3.org/2000/svg" xmlns:xlink="http://www.w3.org/1999/xlink" preserveAspectRatio="xMidYMid meet" viewBox="0 0 300 300" width="300" height="300"><defs><path d="M264.38 58.59L264.38 237.34L35.62 237.34L35.62 58.59L264.38 58.59ZM49.62 223.34L145.12 223.34L145.12 72.59L49.62 72.59L49.62 223.34ZM159.12 223.34L250.38 223.34L250.38 72.59L159.12 72.59L159.12 223.34Z" id="e16IiwBT8p"></path><path d="M90.5 115L117.46 122L128.8 143L117.46 166.8L83.41 185L67.8 164L83.41 148.6L77.73 130.4L90.5 115Z" id="c5ENcPSH4e"></path><path d="M200.25 115L227.21 122L238.55 143L227.21 166.8L193.16 185L177.55 164L193.16 148.6L187.48 130.4L200.25 115Z" id="c3NZkDBj1U"></path></defs><g><g><g><use xlink:href="#e16IiwBT8p" opacity="1" fill="#ffffff" fill-opacity="1"></use><g><use xlink:href="#e16IiwBT8p" opacity="1" fill-opacity="0" stroke="#ffffff" stroke-width="1" stroke-opacity="1"></use></g></g><g><use xlink:href="#c5ENcPSH4e" opacity="1" fill="#e7d26d" fill-opacity="1"></use><g><use xlink:href="#c5ENcPSH4e" opacity="1" fill-opacity="0" stroke="#ffffff" stroke-width="1" stroke-opacity="1"></use></g></g><g><use xlink:href="#c3NZkDBj1U" opacity="1" fill="#8a15d4" fill-opacity="1"></use><g><use xlink:href="#c3NZkDBj1U" opacity="1" fill-opacity="0" stroke="#ffffff" stroke-width="1" stroke-opacity="1"></use></g></g></g></g></svg>