<?xml version="1.0" encoding="UTF-8" standalone="no"?>
<!DOCTYPE svg PUBLIC "-//W3C//DTD SVG 1.1//EN" "http://www.w3.org/Graphics/SVG/1.1/DTD/svg11.dtd">
<svg xmlns="http://www.w3.org/2000/svg" xmlns:xl="http://www.w3.org/1999/xlink" version="1.1" viewBox="0 0 512 512" width="512pt" height="512pt" xmlns:dc="http://purl.org/dc/elements/1.1/"><metadata> Produced by OmniGraffle 6.6.2 <dc:date>2017-12-06 20:30:33 +0000</dc:date></metadata><defs/><g stroke="none" stroke-opacity="1" stroke-dasharray="none" fill="none" fill-opacity="1"><title>iTunesArtwork</title><g><title>Spy Glass</title><path d="M 112.51355 357.1968 C 33.26774 277.9514 33.26774 149.46931 112.51355 70.223905 C 191.75896 -9.0219067 320.24104 -9.0219067 399.48645 70.223905 C 478.73226 149.46931 478.73226 277.9514 399.48645 357.1968 C 320.24104 436.4426 191.75896 436.4426 112.51355 357.1968" stroke="white" stroke-linecap="butt" stroke-linejoin="miter" stroke-width="50"/><path d="M 156 180.39035 L 222.68 180.39035 L 222.68 113.71035 L 289.32 113.71035 L 289.32 180.39035 L 356 180.39035 L 356 247.03035 L 289.32 247.03035 L 289.32 313.71035 L 222.68 313.71035 L 222.68 247.03035 L 156 247.03035 Z" fill="#ffea2e"/><path d="M 155.57107 328.78142 L 284.92893 458.13928 C 288.83418 462.04453 288.83418 468.37618 284.92893 472.28142 L 263.07107 494.13928 C 259.16582 498.04453 252.83418 498.04453 248.92893 494.13928 C 248.92893 494.13928 248.92893 494.13928 248.92893 494.13928 L 119.57107 364.78142 C 115.665825 360.87618 115.665825 354.54453 119.57107 350.63928 L 141.42893 328.78142 C 145.334175 324.87618 151.665825 324.87618 155.57107 328.78142 C 155.57107 328.78142 155.57107 328.78142 155.57107 328.78142 Z" fill="white"/><path d="M 371.19607 328.40642 L 392.92893 350.13928 C 396.83418 354.04453 396.83418 360.37618 392.92893 364.28142 L 263.07107 494.13928 C 259.16582 498.04453 252.83418 498.04453 248.92893 494.13928 L 227.19607 472.40642 C 223.29082 468.50118 223.29082 462.16953 227.19607 458.26428 L 357.05393 328.40642 C 360.95918 324.50118 367.29082 324.50118 371.19607 328.40642 C 371.19607 328.40642 371.19607 328.40642 371.19607 328.40642 Z" fill="white"/><path d="M 212 370.21035 L 269.79861 428.00896 L 255.29861 442.50896 L 197.5 384.71035 Z" fill="white"/><path d="M 298.84896 370.0593 L 313.29861 384.50896 L 255.29861 442.50896 L 240.84896 428.0593 Z" fill="white"/></g></g></svg>
