<?xml version="1.0" encoding="UTF-8" standalone="no"?>
<!-- Created with Inkscape (http://www.inkscape.org/) -->

<svg
   xmlns:dc="http://purl.org/dc/elements/1.1/"
   xmlns:cc="http://creativecommons.org/ns#"
   xmlns:rdf="http://www.w3.org/1999/02/22-rdf-syntax-ns#"
   xmlns:svg="http://www.w3.org/2000/svg"
   xmlns="http://www.w3.org/2000/svg"
   xmlns:sodipodi="http://sodipodi.sourceforge.net/DTD/sodipodi-0.dtd"
   xmlns:inkscape="http://www.inkscape.org/namespaces/inkscape"
   width="2in"
   height="2in"
   viewBox="0 0 180 180"
   id="svg2"
   version="1.1"
   inkscape:version="0.91 r13725"
   sodipodi:docname="switch_user.svg">
  <defs
     id="defs4">
    <clipPath
       id="clipPath4150"
       clipPathUnits="userSpaceOnUse">
      <path
         style="clip-rule:evenodd"
         inkscape:connector-curvature="0"
         id="path4152"
         d="m 0,4.5776e-5 144,0 0,144.000004224 -144,0 L 0,4.5776e-5 Z" />
    </clipPath>
  </defs>
  <sodipodi:namedview
     id="base"
     pagecolor="#ffffff"
     bordercolor="#666666"
     borderopacity="1.0"
     inkscape:pageopacity="0.0"
     inkscape:pageshadow="2"
     inkscape:zoom="2.8"
     inkscape:cx="44.395857"
     inkscape:cy="-54.06901"
     inkscape:document-units="px"
     inkscape:current-layer="layer1"
     showgrid="false"
     units="in"
     inkscape:window-width="1200"
     inkscape:window-height="1857"
     inkscape:window-x="1912"
     inkscape:window-y="-8"
     inkscape:window-maximized="1" />
  <metadata
     id="metadata7">
    <rdf:RDF>
      <cc:Work
         rdf:about="">
        <dc:format>image/svg+xml</dc:format>
        <dc:type
           rdf:resource="http://purl.org/dc/dcmitype/StillImage" />
        <dc:title />
      </cc:Work>
    </rdf:RDF>
  </metadata>
  <g
     inkscape:label="Layer 1"
     inkscape:groupmode="layer"
     id="layer1"
     transform="translate(0,-872.36221)">
    <ellipse
       style="fill:#00ffff;fill-opacity:1;stroke:#000000;stroke-width:15;stroke-miterlimit:4;stroke-dasharray:none;stroke-opacity:1"
       id="path4139"
       cx="90.15612"
       cy="937.4574"
       rx="48.278797"
       ry="49.794025" />
    <path
       style="fill:none;fill-rule:evenodd;stroke:#000000;stroke-width:15;stroke-linecap:butt;stroke-linejoin:miter;stroke-miterlimit:4;stroke-dasharray:none;stroke-opacity:1"
       d="M 61.871844,975.08554 C 29.041886,1034.6845 29.041886,1034.6845 29.041886,1034.6845"
       id="path4145"
       inkscape:connector-curvature="0" />
    <path
       style="fill:none;fill-rule:evenodd;stroke:#000000;stroke-width:15;stroke-linecap:butt;stroke-linejoin:miter;stroke-miterlimit:4;stroke-dasharray:none;stroke-opacity:1"
       d="m 119.54714,975.78529 c 31.37408,59.71461 31.37408,59.71461 31.37408,59.71461"
       id="path4145-9"
       inkscape:connector-curvature="0" />
    <rect
       style="fill:#00ffff;fill-opacity:1;stroke:#000000;stroke-width:15;stroke-miterlimit:4;stroke-dasharray:none;stroke-opacity:1"
       id="rect4186"
       width="3.5355339"
       height="3.7880721"
       x="70.963219"
       y="932.65912" />
    <rect
       style="fill:#00ffff;fill-opacity:1;stroke:#000000;stroke-width:15;stroke-miterlimit:4;stroke-dasharray:none;stroke-opacity:1"
       id="rect4186-1"
       width="3.5355339"
       height="3.7880721"
       x="105.05586"
       y="932.7854" />
    <path
       style="fill:none;fill-rule:evenodd;stroke:#000000;stroke-width:8;stroke-linecap:butt;stroke-linejoin:miter;stroke-miterlimit:4;stroke-dasharray:none;stroke-opacity:1"
       d="m 54.2957,913.21369 c 26.516504,-12.37437 33.335034,-22.98097 27.02158,-12.6269 -6.313453,10.35406 -31.314729,18.68782 -6.313453,10.35406 25.001273,-8.33376 34.850263,-17.42513 25.001273,-8.33376 -9.848985,9.09137 -20.960663,11.86929 -9.848985,8.83884 11.111675,-3.03046 10.859135,-6.06092 11.111675,-2.77792 0.25254,3.28299 -8.333756,5.3033 0.25254,3.28299 8.5863,-2.0203 25.25382,-10.35406 25.25382,-10.35406"
       id="path4220"
       inkscape:connector-curvature="0" />
    <path
       style="fill:none;fill-rule:evenodd;stroke:#000000;stroke-width:12;stroke-linecap:butt;stroke-linejoin:miter;stroke-miterlimit:4;stroke-dasharray:none;stroke-opacity:1"
       d="m 54.642858,907.71935 c 0.705898,0.54989 0.552517,-0.46764 0.892857,-0.53571 0.233472,-0.0467 0.480814,0.0467 0.714286,0 0.08254,-0.0165 0.103279,-0.14093 0.178571,-0.17857 0.168359,-0.0842 0.360947,-0.10867 0.535715,-0.17857 0.123579,-0.0494 0.238095,-0.11905 0.357142,-0.17858 0.119048,-0.0595 0.238096,-0.11904 0.357143,-0.17857 0.178572,-0.11904 0.343756,-0.26116 0.535715,-0.35714 0.168358,-0.0842 0.353103,-0.13292 0.535714,-0.17857 0.115493,-0.0289 0.250663,0.0532 0.357143,0 0.743171,-0.37159 -0.190899,0.0123 0.178571,-0.35714 0.08418,-0.0842 0.250664,0.0532 0.357143,0 0.07529,-0.0376 0.10853,-0.13188 0.178571,-0.17858 0.110746,-0.0738 0.250664,-0.0987 0.357143,-0.17857 0.134687,-0.10101 0.238096,-0.23809 0.357143,-0.35714 0.05952,-0.0595 0.140925,-0.10328 0.178572,-0.17857 0.02662,-0.0532 -0.04209,-0.13648 0,-0.17857 0.36947,-0.36947 -0.01444,0.5646 0.357142,-0.17857 0.02662,-0.0532 -0.04209,-0.13649 0,-0.17858 0.04209,-0.0421 0.125332,0.0266 0.178572,0 0.07529,-0.0376 0.10853,-0.13187 0.178571,-0.17857 0.110746,-0.0738 0.246398,-0.10474 0.357143,-0.17857 0.5783,-0.38553 -0.07432,0.0222 0.178572,-0.35714 0.09339,-0.14008 0.222455,-0.25613 0.357142,-0.35714 0.06367,-0.43867 0.379097,-0.0742 0.535715,-0.17858 0.963345,-0.64223 -0.12299,-0.0556 0.535714,-0.71428 0.09412,-0.0941 0.263027,-0.0845 0.357143,-0.17857 0.04209,-0.0421 -0.02662,-0.12534 0,-0.17857 0.07529,-0.15059 0.263754,-0.21706 0.357143,-0.35715 0.07383,-0.11074 0.08446,-0.26303 0.178571,-0.35714 0.09412,-0.0941 0.263028,-0.0845 0.357143,-0.17857 0.09412,-0.0941 0.104741,-0.2464 0.178571,-0.35714 0.04669,-0.07 0.140926,-0.10328 0.178572,-0.17858 0.02662,-0.0532 -0.04209,-0.13648 0,-0.17857 0.04209,-0.0421 0.136482,0.0421 0.178571,0 0.38996,-0.38996 0.03712,-0.28993 0.178572,-0.71428 0.05324,-0.15972 0.263754,-0.21706 0.357143,-0.35715 0.14766,-0.22149 0.209482,-0.49279 0.357142,-0.71428 0.0542,-0.0813 0.656573,-0.68543 0.714286,-0.71429 0.05324,-0.0266 0.136482,0.0421 0.178572,0 0.08418,-0.0842 -0.08418,-0.27296 0,-0.35714 0.04209,-0.0421 0.136481,0.0421 0.178571,0 0.369471,-0.36947 -0.5646,0.0144 0.178571,-0.35714 0.10648,-0.0532 0.272964,0.0842 0.357143,0 0.04209,-0.0421 -0.04209,-0.13649 0,-0.17857 0.04209,-0.0421 0.119048,0 0.178572,0 0.05952,0 0.119047,0 0.178571,0 0.08042,0 0.481369,0.0272 0.535714,0 0.453669,-0.22684 -0.182878,-0.21343 0.535715,-0.35715 0.175103,-0.035 0.357143,0 0.535714,0 0.297619,0 0.595238,0 0.892857,0 0.595238,0 1.190476,0 1.785714,0 0.05952,0 0.119048,0 0.178572,0 0.05952,0 0.136482,0.0421 0.178571,0 0.04209,-0.0421 -0.04209,-0.13648 0,-0.17857 0.09412,-0.0941 0.246398,-0.10474 0.357143,-0.17857 0.07004,-0.0467 0.09871,-0.15195 0.178572,-0.17857 0.121482,-0.0405 0.798171,0.0473 0.892857,0 0.07529,-0.0376 0.119047,-0.11905 0.178571,-0.17857 0.119048,-0.0595 0.233563,-0.12914 0.357143,-0.17857 0.174768,-0.0699 0.353104,-0.13292 0.535714,-0.17858 0.05775,-0.0144 0.136482,0.0421 0.178572,0 0.09412,-0.0941 0.07209,-0.27728 0.178571,-0.35714 0.150585,-0.11294 0.367356,-0.0944 0.535714,-0.17857 0.07529,-0.0376 0.09871,-0.15195 0.178572,-0.17857 0.112938,-0.0376 0.250663,0.0532 0.357143,0 0.05324,-0.0266 -0.05324,-0.15195 0,-0.17857 0.106479,-0.0532 0.244204,0.0376 0.357143,0 0.07986,-0.0266 0.09871,-0.15196 0.178571,-0.17857 0.112939,-0.0376 0.244204,0.0376 0.357143,0 0.07986,-0.0266 0.09691,-0.15816 0.178571,-0.17858 0.17324,-0.0433 0.357143,0 0.535715,0 0.05952,0 0.125331,0.0266 0.178571,0 0.07529,-0.0376 0.103279,-0.14092 0.178571,-0.17857 0.05324,-0.0266 0.125332,0.0266 0.178572,0 0.07529,-0.0376 0.103279,-0.14092 0.178571,-0.17857 0.10648,-0.0532 0.244205,0.0376 0.357143,0 0.126269,-0.0421 0.230874,-0.13648 0.357143,-0.17857 0.05647,-0.0188 0.120825,0.0144 0.178571,0 0.182611,-0.0457 0.353104,-0.13292 0.535715,-0.17857 0.294451,-0.0736 0.598406,-0.10496 0.892857,-0.17857 0.182611,-0.0457 0.351139,-0.14166 0.535714,-0.17857 0.116736,-0.0234 0.244205,0.0376 0.357143,0 0.07986,-0.0266 0.09871,-0.15196 0.178571,-0.17858 0.112939,-0.0376 0.244205,0.0376 0.357143,0 0.07986,-0.0266 0.09691,-0.15815 0.178572,-0.17857 0.173239,-0.0433 0.357143,0 0.535714,0 0.119048,0 0.238095,0 0.357143,0 0.05952,0 0.122102,0.0188 0.178571,0 0.126269,-0.0421 0.228018,-0.14629 0.357143,-0.17857 0.132547,-0.0331 0.659474,0.0548 0.714286,0 0.04209,-0.0421 -0.04209,-0.13648 0,-0.17857 0.04209,-0.0421 0.119048,0 0.178571,0 0.119048,0 0.250664,0.0532 0.357143,0 0.05324,-0.0266 -0.04209,-0.13648 0,-0.17857 0.0081,-0.008 0.808661,0 0.892857,0 0.119048,0 0.250664,0.0532 0.357143,0 0.05324,-0.0266 -0.04209,-0.13648 0,-0.17857 0.04209,-0.0421 0.119048,0 0.178572,0 0.05952,0 0.136481,-0.0421 0.178571,0 0.04209,0.0421 0,0.11904 0,0.17857 0,0.41667 0,0.83333 0,1.25 0,0.89286 0,1.78571 0,2.67857 0,0.0433 0.0057,0.52997 0,0.53571 -0.04209,0.0421 -0.151952,-0.0532 -0.178571,0 -0.07986,0.15972 0,0.35715 0,0.53572 0,0.35714 0,0.71428 0,1.07143 0,0.11904 0.05324,0.25066 0,0.35714 -0.02662,0.0532 -0.136482,-0.0421 -0.178572,0 -0.04209,0.0421 0.04209,0.13648 0,0.17857 -0.04209,0.0421 -0.136482,-0.0421 -0.178571,0 -0.04209,0.0421 0,0.11905 0,0.17857 0,0.0595 0,0.11905 0,0.17857 0,0.0595 0,0.11905 0,0.17858 0,0.0595 0.02662,0.12533 0,0.17857 -0.03765,0.0753 -0.151952,0.0987 -0.178572,0.17857 0,0.81291 0.08418,0.0102 -0.178571,0.53571 -0.02662,0.0532 0.04209,0.13648 0,0.17857 -0.04209,0.0421 -0.136482,-0.0421 -0.178572,0 -0.04209,0.0421 0.04209,0.13649 0,0.17858 -0.36947,0.36947 0.01444,-0.5646 -0.357142,0.17857 0,0.47619 0.05952,-0.0595 -0.178572,0.17857 -0.04209,0.0421 0.05952,0.17857 0,0.17857 -0.216486,0 0.04445,-0.22302 0.178572,-0.35714 0.47619,-0.47619 0.952381,-0.95238 1.428571,-1.42857 0.546183,-0.54619 -0.29151,0.32915 0.357143,-0.53572 0.530139,-0.70685 0.189985,-0.0114 0.892857,-0.71428 0.384006,-0.1568 0.290291,-0.64744 0.535714,-0.89286 0.09412,-0.0941 0.263028,-0.0845 0.357143,-0.17857 0.08418,-0.0842 -0.05324,-0.25067 0,-0.35715 0.371586,-0.74317 -0.01233,0.1909 0.357143,-0.17857 0.04209,-0.0421 -0.04209,-0.13648 0,-0.17857 0.04209,-0.0421 0.136482,0.0421 0.178571,0 0.08418,-0.0842 -0.08418,-0.27296 0,-0.35714 0.04209,-0.0421 0.136482,0.0421 0.178572,0 0.03651,-0.0365 -0.0354,-0.46491 0,-0.53572 0.03765,-0.0753 0.140925,-0.10328 0.178571,-0.17857 0.02662,-0.0532 0,-0.11904 0,-0.17857 0,-0.11905 0,-0.23809 0,-0.35714 0,-0.41667 0,-0.83333 0,-1.25 0,-0.0595 0,-0.11905 0,-0.17857 0,-0.0595 -0.04209,-0.13649 0,-0.17857 0.04209,-0.0421 0.125332,0.0266 0.178572,0 0.07529,-0.0376 0.103279,-0.14093 0.178571,-0.17858 0.10648,-0.0532 0.250664,0.0532 0.357143,0 0.07529,-0.0376 0.09871,-0.15195 0.178571,-0.17857 0.160715,-0.0536 0.375,0.0536 0.535715,0 0.126269,-0.0421 0.228017,-0.14629 0.357143,-0.17857 0.159425,-0.0399 0.686156,0 0.892857,0 0.535714,0 1.071428,0 1.607143,0 0.357142,0 0.714285,0 1.071428,0 0.119048,0 0.250664,-0.0532 0.357143,0 0.05324,0.0266 -0.04209,0.13648 0,0.17857 0.04209,0.0421 0.136482,-0.0421 0.178571,0 0.04209,0.0421 -0.04209,0.13648 0,0.17857 0.04209,0.0421 0.136482,-0.0421 0.178572,0 0.369471,0.36947 -0.5646,-0.0144 0.178571,0.35715 0.05324,0.0266 0.136482,-0.0421 0.178572,0 0.129541,0.12954 -0.274462,0.48059 -0.357143,0.53571 -0.110745,0.0738 -0.228018,0.14629 -0.357143,0.17857 -0.115493,0.0289 -0.250663,-0.0532 -0.357143,0 -0.05324,0.0266 0.04209,0.13648 0,0.17857 -0.04209,0.0421 -0.125332,-0.0266 -0.178571,0 -0.214286,0.10715 -0.321429,0.42858 -0.535715,0.53572 -0.106479,0.0532 -0.272963,-0.0842 -0.357142,0 -0.09412,0.0941 -0.08446,0.26303 -0.178572,0.35714 -0.08418,0.0842 -0.272963,-0.0842 -0.357143,0 -0.09412,0.0941 -0.07209,0.27729 -0.178571,0.35714 -0.150585,0.11294 -0.367356,0.0944 -0.535714,0.17858 -0.07529,0.0376 -0.103279,0.14092 -0.178572,0.17857 -0.168359,0.0842 -0.360946,0.10866 -0.535714,0.17857 -0.12358,0.0494 -0.238095,0.11905 -0.357143,0.17857 -0.119048,0.0595 -0.246398,0.10474 -0.357143,0.17857 -0.07004,0.0467 -0.09871,0.15195 -0.178571,0.17857 -0.112939,0.0376 -0.244205,-0.0376 -0.357143,0 -0.358798,0.1196 -0.06166,0.4188 -0.178572,0.53572 -0.04209,0.0421 -0.136481,-0.0421 -0.178571,0 -0.04209,0.0421 0.04209,0.13648 0,0.17857 -0.04209,0.0421 -0.136482,-0.0421 -0.178571,0 -0.04209,0.0421 0.04209,0.13648 0,0.17857 -0.04209,0.0421 -0.136482,-0.0421 -0.178572,0 -0.04209,0.0421 0,0.11905 0,0.17857 0,0.0595 -0.04209,0.13648 0,0.17857 0.134129,0.13413 0.462481,-0.23124 0.714286,-0.35714 2.130827,-1.06541 0.431137,-0.002 2.142857,-1.07143 0.03105,-0.0194 1.067446,-0.71296 1.071429,-0.71428 1.266558,0 0.104604,0.12626 0.714285,-0.17858 0.10648,-0.0532 0.303903,0.10648 0.357143,0 0.05324,-0.10648 -0.05324,-0.25066 0,-0.35714 0.05324,-0.10648 0.250664,0.0532 0.357143,0 0.07529,-0.0376 0.119048,-0.11905 0.178571,-0.17857 0.05952,-0.0595 0.140926,-0.10328 0.178572,-0.17857 0.02662,-0.0532 -0.04209,-0.13648 0,-0.17857 0.04209,-0.0421 0.136482,0.0421 0.178571,0 0.04209,-0.0421 -0.04209,-0.13648 0,-0.17857 0.04209,-0.0421 0.125332,0.0266 0.178572,0 0.07529,-0.0376 0.103279,-0.14093 0.178571,-0.17858 0.05324,-0.0266 0.136482,0.0421 0.178572,0 0.04209,-0.0421 -0.05324,-0.15195 0,-0.17857 0.05225,-0.0261 0.925268,0 1.071428,0 0.106419,0 1.206143,-0.0219 1.250003,0 0.0532,0.0266 -0.0421,0.13648 0,0.17857 0.0893,0.0893 0.446428,-0.0893 0.535708,0 0.0421,0.0421 -0.0421,0.13649 0,0.17858 0.0421,0.0421 0.11905,0 0.17857,0 0.119054,0 0.250674,-0.0532 0.357154,0 0.15058,0.0753 0.23809,0.23809 0.35714,0.35714 0.53571,0.29762 1.03001,0.68674 1.60714,0.89286 0.28028,0.1001 0.59524,0 0.89286,0 0.0595,0 0.11905,0 0.17857,0 0.0595,0 0.12533,-0.0266 0.17857,0 0.0753,0.0376 0.10328,0.14092 0.17857,0.17857 0.0532,0.0266 0.12083,-0.0144 0.17857,0 0.18262,0.0456 0.35114,0.14165 0.53572,0.17857 0.11673,0.0234 0.23809,0 0.35714,0 0.0595,0 0.12533,-0.0266 0.17857,0 0.0753,0.0376 0.0969,0.15815 0.17857,0.17857 0.16425,0.0411 1.15082,0 1.42858,0 0.0595,0 0.11904,0 0.17857,0 0.0595,0 0.13648,-0.0421 0.17857,0 0.0421,0.0421 -0.0266,0.12533 0,0.17857 0.26708,0.53417 0.0616,-0.0431 0.35714,0.17857 0.20203,0.15153 0.33852,0.37796 0.53572,0.53572 0.10393,0.0831 0.23809,0.11904 0.35714,0.17857 0.11905,0.0595 0.23087,0.13648 0.35714,0.17857 0.0565,0.0188 0.12533,-0.0266 0.17857,0 0.0753,0.0376 0.10328,0.14093 0.17857,0.17857 0.0532,0.0266 0.13649,-0.0421 0.17858,0 0.0421,0.0421 -0.0421,0.13648 0,0.17857 0.0421,0.0421 0.1221,-0.0188 0.17857,0 0.12627,0.0421 0.25066,0.0987 0.35714,0.17857 0.13469,0.10102 0.22246,0.25613 0.35714,0.35715 0.10648,0.0799 0.2464,0.10474 0.35715,0.17857 0.0955,0.0637 0.70107,0.69667 0.71428,0.71428 0.0799,0.10648 0.0845,0.26303 0.17857,0.35715 0.0114,0.0114 0.68103,0.33497 0.71429,0.35714 0.07,0.0467 0.10853,0.13188 0.17857,0.17857 0.11075,0.0738 0.25066,0.0987 0.35714,0.17857 0.13469,0.10102 0.21706,0.26376 0.35715,0.35715 0.0495,0.033 0.12533,-0.0266 0.17857,0 0.0753,0.0376 0.10853,0.13187 0.17857,0.17857 0.0899,0.39342 0.36735,0.0944 0.53571,0.17857 0.0753,0.0376 0.10328,0.14092 0.17857,0.17857 0.0532,0.0266 0.11905,0 0.17858,0 0.0595,0 0.11904,0 0.17857,0 0.0595,0 0.11904,0 0.17857,0 0.0595,0 0.17857,-0.0595 0.17857,0 0,0.0595 -0.2381,0 -0.17857,0 0.11905,0 0.23809,0 0.35714,0 0.0595,0 0.11905,0 0.17857,0 0.0595,0 0.12533,-0.0266 0.17857,0 0.0753,0.0376 0.10328,0.14093 0.17858,0.17857 0.0748,0.0374 0.70261,-0.0233 0.71428,0 0.40205,0.80409 -1.41903,0.71429 -1.78571,0.71429 -2.20238,0 -4.40476,0 -6.60715,0 -0.068,0 -0.87552,-0.0173 -0.89285,0 -0.0421,0.0421 0.0421,0.13648 0,0.17857 -0.0421,0.0421 -0.13648,-0.0421 -0.17857,0 -0.0421,0.0421 0.0421,0.13648 0,0.17857 -0.38996,0.38996 -0.28993,0.0371 -0.71429,0.17857 -0.17547,0.0585 -0.29464,0.44195 -0.35714,0.53572 -0.0934,0.14008 -0.28185,0.20655 -0.35715,0.35714 -0.0714,0.14286 0.0714,0.39286 0,0.53571 -0.0376,0.0753 -0.14092,0.10328 -0.17857,0.17857 -0.0266,0.0532 0.0421,0.13649 0,0.17858 -0.0421,0.0421 -0.13648,-0.0421 -0.17857,0 -0.0893,0.0893 0.0893,0.44642 0,0.53571 -0.0421,0.0421 -0.12533,-0.0266 -0.17857,0 -0.0753,0.0376 -0.10328,0.14093 -0.17857,0.17857 -0.0532,0.0266 -0.13648,-0.0421 -0.17857,0 -0.0842,0.0842 0.0842,0.27297 0,0.35714 -0.0893,0.0893 -0.44643,-0.0893 -0.53572,0 -0.0421,0.0421 0.0421,0.13649 0,0.17858 -0.0842,0.0842 -0.3039,-0.10648 -0.35714,0 -0.0532,0.10648 0.0532,0.25066 0,0.35714 -0.0532,0.10648 -0.27296,-0.0842 -0.35714,0 -0.0421,0.0421 0.0421,0.13648 0,0.17857 -0.0239,0.0239 -0.87998,0 -0.35715,0"
       id="path4224"
       inkscape:connector-curvature="0" />
  </g>
</svg>
