<svg xmlns="http://www.w3.org/2000/svg" viewBox="-0.00000143075 0 16 15.61">
	<path d="M 8 0 c 4.42 0 8 3.58 8 8 a 8.013 8.013 0 0 1 -5.45 7.59 c -0.4 0.08 -0.55 -0.17 -0.55 -0.38 c 0 -0.27 0.01 -1.13 0.01 -2.2 c 0 -0.75 -0.25 -1.23 -0.54 -1.48 c 1.78 -0.2 3.65 -0.88 3.65 -3.95 c 0 -0.88 -0.31 -1.59 -0.82 -2.15 c 0.08 -0.2 0.36 -1.02 -0.08 -2.12 c 0 0 -0.67 -0.22 -2.2 0.82 c -0.64 -0.18 -1.32 -0.27 -2 -0.27 c -0.68 0 -1.36 0.09 -2 0.27 c -1.53 -1.03 -2.2 -0.82 -2.2 -0.82 c -0.44 1.1 -0.16 1.92 -0.08 2.12 c -0.51 0.56 -0.82 1.28 -0.82 2.15 c 0 3.06 1.86 3.75 3.64 3.95 c -0.23 0.2 -0.44 0.55 -0.51 1.07 c -0.46 0.21 -1.61 0.55 -2.33 -0.66 c -0.15 -0.24 -0.6 -0.83 -1.23 -0.82 c -0.67 0.01 -0.27 0.38 0.01 0.53 c 0.34 0.19 0.73 0.9 0.82 1.13 c 0.16 0.45 0.68 1.31 2.69 0.94 c 0 0.67 0.01 1.3 0.01 1.49 c 0 0.21 -0.15 0.45 -0.55 0.38 A 7.995 7.995 0 0 1 0 8 c 0 -4.42 3.58 -8 8 -8 Z" fill="#fefefe"/>
</svg>