<svg xmlns="http://www.w3.org/2000/svg" viewBox="0 0 1044 592.7">
	<path d="M 588.67 296.36 c 0 163.67 -131.78 296.35 -294.33 296.35 S 0 460 0 296.36 S 131.78 0 294.34 0 s 294.33 132.69 294.33 296.36 M 911.56 296.36 c 0 154.06 -65.89 279 -147.17 279 s -147.17 -124.94 -147.17 -279 s 65.88 -279 147.16 -279 s 147.17 124.9 147.17 279 M 1043.63 296.36 c 0 138 -23.17 249.94 -51.76 249.94 s -51.75 -111.91 -51.75 -249.94 s 23.17 -249.94 51.75 -249.94 s 51.76 111.9 51.76 249.94" stroke="#FF0000" stroke-width="0.1" fill="#fefefe"/>
</svg>